<svg width="18" height="18" viewBox="0 0 18 18" fill="none" xmlns="http://www.w3.org/2000/svg">
<mask id="mask0_50_514" style="mask-type:alpha" maskUnits="userSpaceOnUse" x="0" y="0" width="18" height="18">
<rect width="18" height="18" fill="#D9D9D9"/>
</mask>
<g mask="url(#mask0_50_514)">
<path d="M3.98081 16.125C3.60194 16.125 3.28125 15.9937 3.01875 15.7312C2.75625 15.4687 2.625 15.148 2.625 14.7692V4.73079C2.625 4.35192 2.75625 4.03123 3.01875 3.76873C3.28125 3.50623 3.60194 3.37498 3.98081 3.37498H5.01919V1.78854H6.17306V3.37498H11.8558V1.78854H12.9808V3.37498H14.0192C14.3981 3.37498 14.7188 3.50623 14.9813 3.76873C15.2438 4.03123 15.375 4.35192 15.375 4.73079V8.48079H14.25V7.73079H3.75V14.7692C3.75 14.8269 3.77406 14.8798 3.82219 14.9278C3.87019 14.9759 3.92306 15 3.98081 15H8.94225V16.125H3.98081ZM3.75 6.60579H14.25V4.73079C14.25 4.67304 14.2259 4.62017 14.1778 4.57217C14.1298 4.52404 14.0769 4.49998 14.0192 4.49998H3.98081C3.92306 4.49998 3.87019 4.52404 3.82219 4.57217C3.77406 4.62017 3.75 4.67304 3.75 4.73079V6.60579ZM10.5866 16.125V14.1433L14.6582 10.0903C14.7514 9.99704 14.8524 9.93142 14.961 9.89342C15.0696 9.85554 15.1783 9.83661 15.2871 9.83661C15.4033 9.83661 15.517 9.85867 15.6281 9.90279C15.7391 9.94704 15.8389 10.0134 15.9274 10.1019L16.6211 10.8028C16.7019 10.8962 16.7644 10.9972 16.8086 11.1058C16.8529 11.2144 16.875 11.323 16.875 11.4317C16.875 11.5403 16.8548 11.6509 16.8144 11.7634C16.7741 11.8759 16.7096 11.9787 16.6211 12.072L12.5683 16.125H10.5866ZM11.4808 15.2308H12.1933L14.6278 12.7845L14.2832 12.4282L13.9341 12.0765L11.4808 14.5183V15.2308ZM14.2832 12.4282L13.9341 12.0765L14.6278 12.7845L14.2832 12.4282Z" fill="#42413B"/>
</g>
</svg>
