<svg width="19" height="18" viewBox="0 0 19 18" fill="none" xmlns="http://www.w3.org/2000/svg">
<mask id="mask0_50_526" style="mask-type:alpha" maskUnits="userSpaceOnUse" x="0" y="0" width="19" height="18">
<rect x="0.5" width="18" height="18" fill="#D9D9D9"/>
</mask>
<g mask="url(#mask0_50_526)">
<path d="M9.5 8.7692C8.77812 8.7692 8.16019 8.5122 7.64619 7.9982C7.13206 7.48407 6.875 6.86607 6.875 6.1442C6.875 5.42232 7.13206 4.80438 7.64619 4.29038C8.16019 3.77626 8.77812 3.5192 9.5 3.5192C10.2219 3.5192 10.8398 3.77626 11.3538 4.29038C11.8679 4.80438 12.125 5.42232 12.125 6.1442C12.125 6.86607 11.8679 7.48407 11.3538 7.9982C10.8398 8.5122 10.2219 8.7692 9.5 8.7692ZM3.875 14.4808V12.8134C3.875 12.4461 3.97475 12.106 4.17425 11.793C4.37375 11.48 4.64037 11.2394 4.97412 11.0711C5.71537 10.7078 6.46319 10.4352 7.21756 10.2534C7.97194 10.0717 8.73275 9.98082 9.5 9.98082C10.2673 9.98082 11.0281 10.0717 11.7824 10.2534C12.5368 10.4352 13.2846 10.7078 14.0259 11.0711C14.3596 11.2394 14.6263 11.48 14.8258 11.793C15.0252 12.106 15.125 12.4461 15.125 12.8134V14.4808H3.875ZM5 13.3558H14V12.8134C14 12.6615 13.956 12.5209 13.868 12.3915C13.78 12.2623 13.6606 12.1568 13.5097 12.075C12.8634 11.7568 12.2046 11.5156 11.5331 11.3516C10.8614 11.1878 10.1838 11.1058 9.5 11.1058C8.81625 11.1058 8.13856 11.1878 7.46694 11.3516C6.79544 11.5156 6.13656 11.7568 5.49031 12.075C5.33944 12.1568 5.22 12.2623 5.132 12.3915C5.044 12.5209 5 12.6615 5 12.8134V13.3558ZM9.5 7.6442C9.9125 7.6442 10.2656 7.49732 10.5594 7.20357C10.8531 6.90982 11 6.5567 11 6.1442C11 5.7317 10.8531 5.37857 10.5594 5.08482C10.2656 4.79107 9.9125 4.6442 9.5 4.6442C9.0875 4.6442 8.73438 4.79107 8.44063 5.08482C8.14687 5.37857 8 5.7317 8 6.1442C8 6.5567 8.14687 6.90982 8.44063 7.20357C8.73438 7.49732 9.0875 7.6442 9.5 7.6442Z" fill="#B1B1B1"/>
</g>
</svg>
